<svg width="159" height="69" viewBox="0 0 159 69" fill="none" xmlns="http://www.w3.org/2000/svg">
<path d="M3 26.5V26.5C3 22.5257 5.2745 18.902 8.85358 17.1741L15.6491 13.8936C16.7808 13.3472 17.5 12.2014 17.5 10.9447V10.9447C17.5 9.27028 18.7631 7.86562 20.4281 7.6885L32.5 6.40426M3 26.5H12.5M3 26.5V42.5M3 42.5V42.5C3 44.1069 3.60769 45.6544 4.70113 46.832L14.4257 57.3046C15.0607 57.9885 16.2048 57.6349 16.3432 56.712L16.4609 55.9274C17.1336 51.4426 19.3099 47.3193 22.6331 44.2335V44.2335C23.2994 43.6148 22.8617 42.5 21.9524 42.5H3ZM43 55.5H72M119.5 55.5H72M72 55.5L70.1429 42.5M64.5 3V3C78.2114 3 91.6347 6.9355 103.176 14.339L112 20M64.5 3L32.5 6.40426M64.5 3L68.0764 28.0346M150.5 55.5V55.5C153.814 55.5 156.5 52.8137 156.5 49.5V43.0989C156.5 37.6836 152.986 32.8945 147.821 31.2694L112 20M112 20L38.393 13.2647C36.6043 13.101 35.0409 11.9906 34.2972 10.3556L32.5 6.40426M37.5 26H40.75H44L68.0764 28.0346M117 31L85.5 29L68.0764 28.0346M68.0764 28.0346L70.1429 42.5M70.1429 42.5H109.5H49.5H70.1429Z" stroke="#F8F8F8" stroke-width="5" stroke-linecap="round" stroke-linejoin="round"/>
<circle cx="29.5" cy="53.5" r="13" stroke="#F8F8F8" stroke-width="5"/>
<circle cx="136.5" cy="53.5" r="13" stroke="#F8F8F8" stroke-width="5"/>
</svg>
