<svg width="161" height="60" viewBox="0 0 161 60" fill="none" xmlns="http://www.w3.org/2000/svg">
<path d="M44.5 50H117M141.5 50H151.592C153.144 50 154.644 49.4367 155.812 48.4146V48.4146C157.202 47.1979 158 45.4402 158 43.5925V37.5664C158 34.562 157.481 31.4517 155.493 29.1988C150.085 23.0683 139.626 21.0627 117 20M117 20L99.1298 10.5065C89.8517 5.57749 79.5061 3 69 3V3M117 20H69M28.5 11.5C28.5 11.5 22.2968 14.197 13.456 15.6294C7.73165 16.5569 3 21.201 3 27V27M28.5 11.5L41.0001 20M28.5 11.5C28.5 11.5 32.963 8.83989 36 7.5C39.2176 6.08044 44.5 4.52564 44.5 4.52564M41.0001 20H49.5001M41.0001 20L44.5 4.52564M44.5 4.52564V4.52564C46.8085 3.51936 49.2998 3 51.8181 3H69M69 3V20M69 20H59.5001M3 27V27C3 35.1203 8.03714 42.3889 15.6405 45.2401L19.0001 46.5M3 27H7.5M54.5 39.5H107.5" stroke="#F8F8F8" stroke-width="5" stroke-linecap="round"/>
<circle cx="32.0001" cy="45" r="12" stroke="#F8F8F8" stroke-width="5"/>
<circle cx="130" cy="45" r="12" stroke="#F8F8F8" stroke-width="5"/>
</svg>
